<?xml version="1.0" encoding="UTF-8" standalone="no"?>
<!DOCTYPE svg PUBLIC "-//W3C//DTD SVG 20010904//EN"
              "http://www.w3.org/TR/2001/REC-SVG-20010904/DTD/svg10.dtd">

<svg xmlns="http://www.w3.org/2000/svg"
     width="6.74444in" height="6.74444in"
     viewBox="0 0 607 607">
  <path 
        fill="#e5e7eb"
        d="M 95.00,0.00
           C 95.00,0.00 607.00,0.00 607.00,0.00
             607.00,0.00 607.00,512.00 607.00,512.00
             607.00,512.00 512.00,512.00 512.00,512.00
             512.00,512.00 512.00,464.00 512.00,464.00
             512.00,464.00 559.00,464.00 559.00,464.00
             559.00,464.00 559.00,48.00 559.00,48.00
             559.00,48.00 143.00,48.00 143.00,48.00
             143.00,48.00 143.00,95.00 143.00,95.00
             143.00,95.00 95.00,95.00 95.00,95.00
             95.00,95.00 95.00,0.00 95.00,0.00 Z
           M 464.00,143.00
           C 464.00,143.00 464.00,559.00 464.00,559.00
             464.00,559.00 48.00,559.00 48.00,559.00
             48.00,559.00 48.00,143.00 48.00,143.00
             48.00,143.00 464.00,143.00 464.00,143.00 Z
           M 48.00,95.00
           C 48.00,95.00 0.00,95.00 0.00,95.00
             0.00,95.00 0.00,143.00 0.00,143.00
             0.00,143.00 0.00,559.00 0.00,559.00
             0.00,559.00 0.00,607.00 0.00,607.00
             0.00,607.00 48.00,607.00 48.00,607.00
             48.00,607.00 464.00,607.00 464.00,607.00
             464.00,607.00 512.00,607.00 512.00,607.00
             512.00,607.00 512.00,559.00 512.00,559.00
             512.00,559.00 512.00,143.00 512.00,143.00
             512.00,143.00 512.00,95.00 512.00,95.00
             512.00,95.00 464.00,95.00 464.00,95.00
             464.00,95.00 48.00,95.00 48.00,95.00 Z" />
</svg>
